<?xml version="1.0" standalone="no"?>
<!DOCTYPE svg PUBLIC "-//W3C//DTD SVG 20010904//EN"
 "http://www.w3.org/TR/2001/REC-SVG-20010904/DTD/svg10.dtd">
<svg version="1.0" xmlns="http://www.w3.org/2000/svg"
 width="594.000000pt" height="594.000000pt" viewBox="0 0 594.000000 594.000000"
 preserveAspectRatio="xMidYMid meet">
<metadata>
Created by potrace 1.11, written by Peter Selinger 2001-2013
</metadata>
<g transform="translate(0.000000,594.000000) scale(0.100000,-0.100000)"
fill="#000000" stroke="none">
<path d="M2670 5359 c-149 -24 -333 -174 -410 -335 -39 -81 -53 -181 -48 -339
6 -154 9 -163 112 -303 89 -123 108 -139 175 -152 74 -14 87 -24 118 -88 24
-49 35 -61 83 -84 69 -34 192 -51 334 -46 100 3 106 4 135 32 26 25 35 28 71
22 56 -9 93 12 121 71 19 40 23 65 25 158 0 60 5 151 9 202 l8 92 -44 68 -44
67 -5 149 c-3 82 -2 151 3 154 15 9 6 44 -28 102 -42 71 -161 167 -249 200
-96 36 -251 48 -366 30z"/>
<path d="M4206 3957 c-34 -34 -110 -115 -169 -180 l-108 -117 33 0 c18 0 44
-6 58 -13 32 -16 70 -73 70 -105 0 -21 3 -23 25 -18 52 13 125 -44 125 -96 0
-10 12 -12 40 -10 57 6 96 -14 131 -64 24 -35 36 -44 59 -44 46 0 81 -18 92
-48 7 -19 22 -32 42 -38 20 -6 37 -21 47 -42 l17 -33 47 63 c26 34 53 74 60
88 12 24 77 226 92 288 11 46 -43 67 -102 40 -40 -18 -49 -1 -34 65 10 49 10
59 -5 81 -10 16 -26 26 -41 26 -18 0 -25 5 -25 20 0 28 -40 46 -68 31 -26 -14
-45 -14 -37 -1 10 16 -14 40 -39 40 -31 0 -62 -37 -75 -87 -11 -41 -24 -53
-35 -34 -3 4 4 36 15 70 20 58 20 63 4 87 -21 32 -40 39 -71 25 -23 -10 -24
-9 -18 13 7 28 -18 56 -48 56 -13 0 -46 -25 -82 -63z"/>
<path d="M2318 3761 c-86 -54 -109 -63 -206 -72 -302 -28 -471 -254 -679 -904
-68 -213 -118 -420 -168 -693 -39 -210 -56 -278 -115 -454 -78 -230 -82 -263
-48 -361 30 -86 28 -177 -5 -297 -15 -52 -27 -115 -27 -140 0 -63 17 -120 37
-120 11 0 14 6 9 23 -20 74 -17 124 13 241 17 65 31 141 31 169 0 40 3 48 12
39 20 -20 13 -184 -11 -287 -21 -86 -21 -127 0 -167 5 -10 16 -15 24 -12 12 5
12 10 4 27 -13 23 -7 101 15 212 10 52 14 61 15 35 1 -19 8 -60 16 -90 8 -30
15 -83 15 -117 0 -48 3 -63 15 -63 24 0 27 60 8 145 -30 132 -18 274 22 259
13 -5 14 -15 8 -53 -9 -55 -7 -137 6 -206 5 -27 13 -76 16 -108 5 -40 11 -57
21 -57 18 0 18 31 -1 145 -23 138 -19 255 9 255 30 -1 35 -15 20 -60 -18 -51
-12 -105 18 -164 17 -33 18 -44 8 -85 -13 -54 0 -104 24 -95 10 4 12 13 7 32
-4 14 -3 46 3 70 8 36 6 49 -12 88 -24 49 -29 127 -10 168 9 21 16 24 37 19
14 -3 27 -7 28 -8 2 -1 -2 -28 -8 -60 -8 -43 -8 -80 0 -136 8 -53 9 -90 2
-120 -14 -59 -13 -69 3 -69 26 0 40 97 29 188 -12 92 1 201 22 181 2 -3 0 -21
-5 -40 -15 -50 -12 -120 6 -170 9 -26 13 -57 9 -76 -6 -32 8 -73 24 -73 14 0
11 112 -5 164 -17 60 -18 96 -2 147 7 26 17 39 28 39 15 0 18 -11 18 -87 0
-60 5 -102 17 -131 15 -37 16 -47 5 -68 -10 -17 -11 -32 -4 -51 10 -30 30 -29
26 2 -1 10 0 26 3 33 8 20 34 -3 52 -45 7 -18 18 -33 23 -33 18 0 10 44 -15
80 l-25 35 25 60 c16 39 25 80 25 118 0 46 3 57 16 57 12 0 14 -5 8 -17 -12
-24 -10 -130 4 -227 11 -76 28 -115 42 -99 9 10 -5 139 -19 176 -14 37 -14
100 1 132 20 44 28 27 28 -58 0 -52 7 -109 20 -155 11 -39 20 -83 20 -97 0
-16 6 -25 15 -25 21 0 19 48 -5 139 -26 99 -27 221 0 221 4 0 5 -30 3 -67 -5
-62 -2 -73 28 -128 18 -33 35 -82 38 -109 8 -69 31 -73 31 -6 0 40 -7 65 -30
106 -34 59 -47 135 -31 177 14 36 24 34 46 -10 15 -33 27 -137 34 -310 1 -7 8
-13 18 -13 14 0 15 13 10 128 -5 112 -13 157 -42 225 -5 12 -3 17 8 17 25 0
47 -75 56 -188 8 -101 24 -162 42 -162 16 0 20 20 8 42 -6 12 -15 69 -19 127
-5 59 -16 125 -26 150 -14 36 -15 44 -3 52 9 6 10 9 2 9 -16 0 -59 75 -68 117
-11 54 18 131 75 197 28 32 64 78 80 101 31 45 47 55 85 55 21 0 23 4 20 33
-3 17 -7 52 -10 77 -7 58 -46 124 -135 230 -81 97 -130 190 -162 305 -28 105
-30 351 -5 745 19 298 23 330 39 330 7 0 8 -29 4 -82 -6 -78 -18 -279 -35
-588 -19 -344 28 -516 195 -715 92 -110 123 -170 132 -263 7 -65 12 -74 52
-119 59 -64 113 -99 185 -118 53 -13 168 -21 138 -8 -26 10 -13 40 25 56 52
22 61 24 213 46 204 29 308 57 376 98 58 35 85 41 134 28 21 -5 27 -2 37 19
10 22 9 26 -3 26 -21 0 -19 29 3 36 63 19 103 46 120 81 l20 38 -112 104 c-61
58 -149 140 -195 184 l-83 79 50 107 c28 58 73 156 100 217 l50 111 -18 29
c-10 16 -28 58 -41 94 -27 80 -30 229 -6 303 l15 48 -26 12 c-15 6 -35 17 -44
25 -17 14 -18 11 -18 -44 0 -32 9 -93 20 -134 34 -128 35 -213 2 -405 -23
-136 -32 -171 -45 -173 -14 -3 -17 5 -17 37 0 30 -4 41 -15 41 -11 0 -15 12
-16 43 l-1 42 -14 -42 c-11 -29 -20 -40 -30 -36 -18 7 -17 16 1 77 18 60 19
147 3 235 -11 56 -13 60 -16 31 -1 -19 -9 -81 -17 -138 -8 -56 -15 -141 -15
-188 0 -76 -2 -85 -17 -82 -27 5 -28 103 -3 297 23 175 22 297 -3 383 -10 31
-11 89 -7 213 l7 170 56 153 c53 143 62 186 34 164 -18 -14 -78 -32 -138 -41
-75 -12 -233 10 -262 37 -39 35 -74 53 -91 46 -12 -5 -16 -20 -16 -70 0 -75
-13 -105 -93 -217 -32 -45 -66 -107 -82 -154 -16 -43 -48 -130 -73 -193 -56
-146 -57 -181 -9 -318 20 -57 48 -163 61 -235 13 -73 32 -150 42 -172 9 -22
20 -82 24 -132 5 -59 14 -102 24 -118 18 -27 14 -45 -8 -45 -24 0 -45 64 -50
153 -3 49 -12 99 -21 116 -14 28 -35 109 -49 194 -4 20 -11 37 -17 37 -6 0 -5
-9 2 -22 8 -15 9 -50 5 -111 -5 -67 -3 -100 8 -136 13 -39 56 -257 56 -283 0
-4 -8 -8 -18 -8 -16 0 -22 19 -40 123 -12 68 -29 141 -37 163 -14 37 -15 30
-11 -123 3 -149 2 -163 -14 -163 -14 0 -18 14 -23 83 -4 45 -7 127 -7 183 0
75 -5 116 -20 159 -25 72 -25 89 0 144 19 41 19 45 4 63 -10 10 -20 18 -24 18
-23 0 -20 -239 5 -577 5 -67 4 -73 -13 -73 -23 0 -29 49 -39 345 -9 268 -24
219 -29 -95 -5 -265 -9 -300 -29 -300 -13 0 -15 31 -15 194 0 234 13 374 44
472 l24 73 -23 15 c-22 14 -23 14 -34 -27 -24 -90 -32 -158 -37 -332 -7 -261
-12 -307 -32 -303 -19 4 -19 -23 -2 348 7 149 15 225 29 280 19 70 19 76 4
100 l-17 25 -13 -55 c-24 -107 -44 -276 -50 -442 -5 -147 -8 -168 -22 -166
-34 7 -9 424 39 639 11 49 20 109 20 135 0 62 41 179 104 299 30 55 68 141 86
190 18 50 53 141 77 202 25 62 43 118 41 123 -2 6 -24 -3 -50 -19z m-1075
-2608 c2 -5 -1 -24 -9 -43 l-12 -35 -1 43 c-1 37 10 55 22 35z m446 -123 c19
0 10 -122 -13 -175 -16 -37 -18 -39 -29 -20 -6 11 -13 62 -15 114 l-5 94 24
-6 c13 -4 30 -7 38 -7z"/>
<path d="M3314 3510 c9 -191 40 -391 68 -449 l23 -46 8 100 c12 149 17 185 29
185 7 0 8 -36 4 -112 -6 -125 -9 -271 -7 -363 l2 -60 35 75 c20 41 83 176 140
299 l104 224 -50 68 c-90 120 -149 162 -281 199 -41 11 -75 20 -78 20 -2 0 -1
-63 3 -140z"/>
<path d="M3167 3043 c-4 -7 0 -41 10 -75 15 -53 18 -100 17 -283 -1 -208 0
-217 12 -155 29 138 29 227 1 356 -15 65 -28 130 -29 144 -2 16 -6 21 -11 13z"/>
<path d="M3081 3004 c0 -11 3 -14 6 -6 3 7 2 16 -1 19 -3 4 -6 -2 -5 -13z"/>
<path d="M3326 2988 c-25 -95 -15 -224 27 -321 19 -46 21 -48 32 -27 9 17 7
33 -9 78 -15 43 -20 85 -21 171 -1 72 -5 116 -12 118 -6 2 -13 -6 -17 -19z"/>
<path d="M3131 2905 c0 -44 6 -114 14 -155 l14 -75 -4 125 c-4 150 -23 234
-24 105z"/>
<path d="M3391 2888 c2 -122 16 -147 18 -30 1 62 -3 102 -9 102 -6 0 -10 -30
-9 -72z"/>
<path d="M2296 2605 c-10 -27 -7 -56 13 -119 l18 -58 10 49 c15 76 -19 183
-41 128z"/>
<path d="M4205 2333 c-136 -205 -357 -446 -513 -557 -80 -57 -83 -58 -102 -41
-22 20 -22 20 -39 -12 -9 -18 -8 -23 9 -28 29 -9 57 -50 74 -109 9 -29 30 -72
48 -95 82 -108 95 -160 62 -252 -17 -49 -20 -184 -5 -203 6 -7 13 -63 17 -124
6 -93 10 -112 23 -112 14 0 15 12 11 92 -3 51 -5 95 -3 97 12 17 18 -33 21
-167 2 -117 5 -157 15 -157 9 0 13 40 17 150 3 83 8 145 13 138 4 -7 10 -77
14 -157 5 -119 9 -146 21 -146 12 0 14 21 10 140 -2 77 -1 140 3 140 14 0 19
-48 19 -187 0 -120 2 -143 15 -143 17 0 18 13 15 199 -1 69 2 111 8 107 5 -3
7 -17 5 -30 -13 -68 53 -284 79 -258 8 8 5 24 -11 62 -22 52 -42 170 -33 203
9 34 27 10 28 -39 1 -36 12 -71 43 -131 22 -46 45 -83 49 -83 22 0 18 18 -18
91 -27 53 -40 92 -40 119 0 37 2 40 29 40 27 0 29 -3 35 -53 10 -78 46 -194
67 -213 28 -26 41 -8 19 29 -26 45 -50 133 -50 184 0 42 1 43 34 43 l33 0 -5
-49 c-6 -71 4 -113 42 -168 18 -26 35 -56 39 -65 3 -10 11 -18 17 -18 19 0 10
48 -15 78 -35 41 -55 94 -55 141 0 56 8 71 39 71 36 0 51 -32 51 -113 1 -65 8
-84 53 -137 20 -24 31 -30 39 -22 8 8 2 21 -20 47 -35 40 -40 54 -45 140 -2
33 -5 67 -8 75 -3 10 4 16 22 18 24 3 27 -1 34 -35 4 -21 26 -76 50 -123 25
-47 46 -93 49 -102 6 -22 36 -24 36 -3 0 8 -23 58 -50 111 -52 99 -69 169 -40
169 9 0 17 -15 22 -44 7 -43 104 -231 119 -231 22 0 14 26 -33 110 -59 108
-74 180 -42 205 11 8 22 15 25 15 3 0 15 -35 27 -77 29 -109 59 -174 77 -167
12 5 12 11 -2 42 -8 21 -29 82 -44 137 -28 96 -29 100 -11 118 18 18 19 16 41
-58 21 -73 82 -198 103 -211 28 -17 22 18 -13 79 -48 85 -82 197 -119 392 -53
279 -124 558 -205 795 -47 142 -148 400 -156 400 -3 0 -23 -26 -44 -57z"/>
<path d="M3487 1644 c-15 -8 -39 -33 -53 -56 l-26 -41 -52 7 c-46 5 -57 3 -86
-19 -65 -48 -223 -90 -425 -115 -49 -6 -116 -18 -149 -27 l-59 -16 49 -13 c60
-15 94 -51 94 -100 0 -31 -14 -49 -125 -164 -104 -108 -125 -134 -125 -160 0
-28 3 -30 35 -30 30 0 45 10 105 72 53 53 74 68 82 60 9 -9 4 -17 -18 -34 -37
-28 -82 -76 -94 -99 -8 -14 -4 -22 18 -37 47 -33 59 -33 67 -4 9 35 52 92 71
92 21 0 17 -13 -11 -40 -32 -30 -50 -90 -32 -106 6 -6 29 -14 50 -17 35 -5 37
-4 31 18 -7 28 19 86 46 103 35 22 42 2 10 -28 -18 -17 -30 -38 -30 -53 0 -73
39 -78 74 -9 14 27 47 75 73 108 67 81 91 116 98 146 13 52 36 61 168 69 75 5
148 16 187 28 79 25 102 26 141 5 17 -8 33 -13 35 -11 10 9 5 102 -5 130 -15
40 -14 93 4 128 12 23 13 34 4 50 l-11 22 -24 -25 c-16 -16 -28 -44 -35 -86
-9 -49 -15 -62 -29 -62 -15 0 -17 7 -13 43 7 63 32 124 59 146 22 17 25 51 5
51 -20 0 -56 -39 -75 -81 -16 -37 -24 -46 -35 -39 -33 20 34 133 90 152 11 4
11 10 2 31 -14 31 -43 35 -86 11z"/>
<path d="M2204 1462 c8 -15 35 -47 60 -70 29 -27 43 -47 40 -57 -4 -8 -9 -15
-13 -15 -11 0 -84 70 -109 105 -17 23 -24 27 -31 16 -6 -9 -3 -19 10 -32 33
-33 60 -99 66 -164 6 -62 5 -65 -16 -65 -18 0 -21 6 -21 48 -1 72 -41 162 -72
162 -5 0 0 -10 12 -22 23 -25 25 -55 9 -125 -9 -40 -7 -62 9 -128 l19 -80 144
3 c79 2 163 -1 185 -6 l42 -9 105 106 c57 58 107 113 109 121 3 8 2 25 -3 38
-8 20 -14 22 -92 22 -46 0 -108 5 -138 10 -70 14 -165 59 -208 99 -56 53 -83
71 -103 71 -17 0 -17 -2 -4 -28z"/>
<path d="M3670 1415 c-9 -10 -10 -31 -6 -68 4 -28 11 -77 15 -107 l7 -55 14
45 c20 62 19 149 -1 178 -14 20 -18 21 -29 7z"/>
<path d="M2069 1337 c-14 -18 -15 -37 -9 -103 6 -74 44 -194 60 -194 4 0 -2
37 -12 82 -18 75 -18 86 -5 140 14 53 13 60 -2 78 -16 19 -16 19 -32 -3z"/>
<path d="M2001 1256 c-19 -54 -9 -119 24 -162 33 -43 44 -37 21 13 -9 21 -20
72 -24 113 l-8 75 -13 -39z"/>
<path d="M3465 1154 c-22 -8 -94 -20 -160 -25 -166 -15 -156 -11 -187 -76 -15
-32 -53 -89 -84 -127 -45 -54 -55 -72 -47 -84 15 -24 47 -28 125 -18 53 8 77
7 101 -3 43 -18 97 -25 97 -14 0 24 71 98 97 103 23 4 29 11 31 40 4 43 20 62
72 85 26 12 42 27 49 47 6 18 22 34 42 42 l33 14 -32 16 c-38 20 -84 19 -137
0z"/>
</g>
</svg>
