<?xml version="1.0" encoding="UTF-8" standalone="no"?>
<svg
   xmlns:dc="http://purl.org/dc/elements/1.1/"
   xmlns:cc="http://creativecommons.org/ns#"
   xmlns:rdf="http://www.w3.org/1999/02/22-rdf-syntax-ns#"
   xmlns:svg="http://www.w3.org/2000/svg"
   xmlns="http://www.w3.org/2000/svg"
   xmlns:sodipodi="http://sodipodi.sourceforge.net/DTD/sodipodi-0.dtd"
   xmlns:inkscape="http://www.inkscape.org/namespaces/inkscape"
   width="512"
   height="512"
   viewBox="0 0 512 512"
   version="1.1"
   id="svg6"
   sodipodi:docname="heart-outline.svg"
   inkscape:version="0.92.5 (2060ec1f9f, 2020-04-08)">
  <metadata
     id="metadata12">
    <rdf:RDF>
      <cc:Work
         rdf:about="">
        <dc:format>image/svg+xml</dc:format>
        <dc:type
           rdf:resource="http://purl.org/dc/dcmitype/StillImage" />
        <dc:title>ionicons-v5-f</dc:title>
      </cc:Work>
    </rdf:RDF>
  </metadata>
  <defs
     id="defs10" />
  <sodipodi:namedview
     pagecolor="#ffffff"
     bordercolor="#666666"
     borderopacity="1"
     objecttolerance="10"
     gridtolerance="10"
     guidetolerance="10"
     inkscape:pageopacity="0"
     inkscape:pageshadow="2"
     inkscape:window-width="1920"
     inkscape:window-height="1001"
     id="namedview8"
     showgrid="false"
     inkscape:zoom="0.65186406"
     inkscape:cx="-266.40064"
     inkscape:cy="437.924"
     inkscape:window-x="-9"
     inkscape:window-y="-9"
     inkscape:window-maximized="1"
     inkscape:current-layer="svg6" />
  <title
     id="title2">ionicons-v5-f</title>
  <path
     inkscape:connector-curvature="0"
     d="m 352.9201,80.009773 c -64.92,0 -96.92001,63.999997 -96.92001,63.999997 0,0 -32,-63.999997 -96.92,-63.999997 -52.76001,0 -94.540004,44.139997 -95.080004,96.809997 -1.1,109.33 86.730004,187.08 183.000004,252.42 a 16,16 0 0 0 18,0 c 96.26001,-65.34 184.09001,-143.09 183.00001,-252.42 -0.54,-52.67 -42.32,-96.809997 -95.08,-96.809997 z"
     style="fill:#000000;stroke:#ffffff;stroke-width:32px;stroke-linecap:round;stroke-linejoin:round;opacity:0.3"
     id="path4-7" />
  <path
     d="m 352.92009,80.009773 c -64.92,0 -96.92,63.999997 -96.92,63.999997 0,0 -32,-63.999997 -96.92,-63.999997 -52.76,0 -94.539999,44.139997 -95.079999,96.809997 -1.1,109.33 86.729999,187.08 182.999999,252.42 a 16,16 0 0 0 18,0 c 96.26,-65.34 184.09,-143.09 183,-252.42 -0.54,-52.67 -42.32,-96.809997 -95.08,-96.809997 z"
     style="fill:none;stroke:#ffffff;stroke-width:32px;stroke-linecap:round;stroke-linejoin:round"
     id="path4"
     inkscape:connector-curvature="0" />
</svg>
