<?xml version="1.0" encoding="UTF-8" standalone="no"?>
<svg
   xmlns:dc="http://purl.org/dc/elements/1.1/"
   xmlns:cc="http://creativecommons.org/ns#"
   xmlns:rdf="http://www.w3.org/1999/02/22-rdf-syntax-ns#"
   xmlns:svg="http://www.w3.org/2000/svg"
   xmlns="http://www.w3.org/2000/svg"
   xmlns:sodipodi="http://sodipodi.sourceforge.net/DTD/sodipodi-0.dtd"
   xmlns:inkscape="http://www.inkscape.org/namespaces/inkscape"
   width="512"
   height="512"
   viewBox="0 0 512 512"
   version="1.1"
   id="svg8"
   sodipodi:docname="fitness-filled.svg"
   inkscape:version="0.92.5 (2060ec1f9f, 2020-04-08)">
  <metadata
     id="metadata14">
    <rdf:RDF>
      <cc:Work
         rdf:about="">
        <dc:format>image/svg+xml</dc:format>
        <dc:type
           rdf:resource="http://purl.org/dc/dcmitype/StillImage" />
      </cc:Work>
    </rdf:RDF>
  </metadata>
  <defs
     id="defs12" />
  <sodipodi:namedview
     pagecolor="#ffffff"
     bordercolor="#666666"
     borderopacity="1"
     objecttolerance="10"
     gridtolerance="10"
     guidetolerance="10"
     inkscape:pageopacity="0"
     inkscape:pageshadow="2"
     inkscape:window-width="1920"
     inkscape:window-height="1001"
     id="namedview10"
     showgrid="false"
     inkscape:zoom="1.3037281"
     inkscape:cx="167.22694"
     inkscape:cy="254.45044"
     inkscape:window-x="-9"
     inkscape:window-y="-9"
     inkscape:window-maximized="1"
     inkscape:current-layer="svg8" />
  <title
     id="title2">ionicons-v5-m</title>
  <rect
     style="opacity:1;fill:#d40000;fill-opacity:1;stroke-width:0.74276924"
     id="rect823-7"
     width="131.44888"
     height="116.10824"
     x="258.72971"
     y="218.46733" />
  <rect
     style="opacity:1;fill:#d40000;fill-opacity:1;stroke-width:0.53938985"
     id="rect823-0"
     width="69.319366"
     height="116.10824"
     x="217.39252"
     y="311.19562" />
  <rect
     style="opacity:1;fill:#d40000;fill-opacity:1;stroke-width:0.74276924"
     id="rect823-6"
     width="131.44888"
     height="116.10824"
     x="191.998"
     y="290.56827" />
  <rect
     style="opacity:1;fill:#d40000;fill-opacity:1;stroke-width:0.79720354"
     id="rect823-86"
     width="131.44888"
     height="133.74995"
     x="310.12079"
     y="127.19064" />
  <rect
     style="opacity:1;fill:#d40000;fill-opacity:1"
     id="rect823-1"
     width="131.44888"
     height="210.45306"
     x="89.215843"
     y="96.125877" />
  <rect
     style="opacity:1;fill:#d40000;fill-opacity:1;stroke-width:0.81374806"
     id="rect823-8"
     width="94.631378"
     height="193.57838"
     x="120.66411"
     y="152.88615" />
  <rect
     style="opacity:1;fill:#d40000;fill-opacity:1;"
     id="rect825"
     width="209.39949"
     height="256.95541"
     x="151.10513"
     y="116.979" />
  <rect
     style="opacity:1;fill:#d40000;fill-opacity:1;stroke-width:0.74276924"
     id="rect823"
     width="131.44888"
     height="116.10824"
     x="63.362556"
     y="132.01857" />
  <rect
     style="opacity:1;fill:#d40000;fill-opacity:1"
     id="rect821"
     width="132.24487"
     height="221.22049"
     x="286.71188"
     y="89.975136" />
  <path
     d="M352.92,80C288,80,256,144,256,144s-32-64-96.92-64C106.32,80,64.54,124.14,64,176.81c-1.1,109.33,86.73,187.08,183,252.42a16,16,0,0,0,18,0c96.26-65.34,184.09-143.09,183-252.42C447.46,124.14,405.68,80,352.92,80Z"
     style="fill:none;stroke:#ffffff;stroke-linecap:round;stroke-linejoin:round;stroke-width:32px"
     id="path4" />
  <polyline
     points="48 256 160 256 208 160 256 320 304 224 336 288 464 288"
     style="fill:none;stroke:#ffffff;stroke-linecap:round;stroke-linejoin:round;stroke-width:32px"
     id="polyline6" />
</svg>
