<?xml version="1.0" encoding="UTF-8" standalone="no"?>
<svg
   xmlns:dc="http://purl.org/dc/elements/1.1/"
   xmlns:cc="http://creativecommons.org/ns#"
   xmlns:rdf="http://www.w3.org/1999/02/22-rdf-syntax-ns#"
   xmlns:svg="http://www.w3.org/2000/svg"
   xmlns="http://www.w3.org/2000/svg"
   xmlns:sodipodi="http://sodipodi.sourceforge.net/DTD/sodipodi-0.dtd"
   xmlns:inkscape="http://www.inkscape.org/namespaces/inkscape"
   width="512"
   height="512"
   viewBox="0 0 512 512"
   version="1.1"
   id="svg10"
   sodipodi:docname="other-filled.svg"
   inkscape:version="0.92.5 (2060ec1f9f, 2020-04-08)">
  <metadata
     id="metadata16">
    <rdf:RDF>
      <cc:Work
         rdf:about="">
        <dc:format>image/svg+xml</dc:format>
        <dc:type
           rdf:resource="http://purl.org/dc/dcmitype/StillImage" />
      </cc:Work>
    </rdf:RDF>
  </metadata>
  <defs
     id="defs14" />
  <sodipodi:namedview
     pagecolor="#ffffff"
     bordercolor="#666666"
     borderopacity="1"
     objecttolerance="10"
     gridtolerance="10"
     guidetolerance="10"
     inkscape:pageopacity="0"
     inkscape:pageshadow="2"
     inkscape:window-width="1920"
     inkscape:window-height="1001"
     id="namedview12"
     showgrid="false"
     inkscape:zoom="1.3037281"
     inkscape:cx="181.20639"
     inkscape:cy="272.60373"
     inkscape:window-x="-9"
     inkscape:window-y="-9"
     inkscape:window-maximized="1"
     inkscape:current-layer="svg10" />
  <title
     id="title2">ionicons-v5-a</title>
  <circle
     style="opacity:1;fill:#d40000;fill-opacity:1;stroke-width:1.1559093"
     id="path823"
     cx="256"
     cy="256"
     r="206" />
  <path
     d="M448,256c0-106-86-192-192-192S64,150,64,256s86,192,192,192S448,362,448,256Z"
     style="fill:none;stroke:#ffffff;stroke-miterlimit:10;stroke-width:32px"
     id="path4" />
  <path
     d="M250.26,166.05,256,288l5.73-121.95a5.74,5.74,0,0,0-5.79-6h0A5.74,5.74,0,0,0,250.26,166.05Z"
     style="fill:none;stroke:#ffffff;stroke-linecap:round;stroke-linejoin:round;stroke-width:32px"
     id="path6" />
  <path
     d="M256,367.91a20,20,0,1,1,20-20A20,20,0,0,1,256,367.91Z"
     id="path8"
     style="fill:#ffffff" />
</svg>
