<?xml version="1.0" encoding="UTF-8" standalone="no"?>
<svg
   xmlns:dc="http://purl.org/dc/elements/1.1/"
   xmlns:cc="http://creativecommons.org/ns#"
   xmlns:rdf="http://www.w3.org/1999/02/22-rdf-syntax-ns#"
   xmlns:svg="http://www.w3.org/2000/svg"
   xmlns="http://www.w3.org/2000/svg"
   xmlns:sodipodi="http://sodipodi.sourceforge.net/DTD/sodipodi-0.dtd"
   xmlns:inkscape="http://www.inkscape.org/namespaces/inkscape"
   width="512"
   height="512"
   viewBox="0 0 512 512"
   version="1.1"
   id="svg14"
   sodipodi:docname="bed.svg"
   inkscape:version="0.92.5 (2060ec1f9f, 2020-04-08)">
  <metadata
     id="metadata20">
    <rdf:RDF>
      <cc:Work
         rdf:about="">
        <dc:format>image/svg+xml</dc:format>
        <dc:type
           rdf:resource="http://purl.org/dc/dcmitype/StillImage" />
      </cc:Work>
    </rdf:RDF>
  </metadata>
  <defs
     id="defs18" />
  <sodipodi:namedview
     pagecolor="#ffffff"
     bordercolor="#666666"
     borderopacity="1"
     objecttolerance="10"
     gridtolerance="10"
     guidetolerance="10"
     inkscape:pageopacity="0"
     inkscape:pageshadow="2"
     inkscape:window-width="1920"
     inkscape:window-height="1001"
     id="namedview16"
     showgrid="false"
     inkscape:zoom="1.3037281"
     inkscape:cx="42.365075"
     inkscape:cy="221.0904"
     inkscape:window-x="-9"
     inkscape:window-y="-9"
     inkscape:window-maximized="1"
     inkscape:current-layer="svg14" />
  <title
     id="title2">ionicons-v5-g</title>
  <path
     d="M384,240H96V136a40.12,40.12,0,0,1,40-40H376a40.12,40.12,0,0,1,40,40V240Z"
     style="fill:none;stroke:#d40000;stroke-linecap:round;stroke-linejoin:round;stroke-width:32px"
     id="path4" />
  <path
     d="M48,416V304a64.19,64.19,0,0,1,64-64H400a64.19,64.19,0,0,1,64,64V416"
     style="fill:none;stroke:#d40000;stroke-linecap:round;stroke-linejoin:round;stroke-width:32px"
     id="path6" />
  <path
     d="M48,416v-8a24.07,24.07,0,0,1,24-24H440a24.07,24.07,0,0,1,24,24v8"
     style="fill:none;stroke:#d40000;stroke-linecap:round;stroke-linejoin:round;stroke-width:32px"
     id="path8" />
  <path
     d="M112,240V224a32.09,32.09,0,0,1,32-32h80a32.09,32.09,0,0,1,32,32v16"
     style="fill:none;stroke:#d40000;stroke-linecap:round;stroke-linejoin:round;stroke-width:32px"
     id="path10" />
  <path
     d="M256,240V224a32.09,32.09,0,0,1,32-32h80a32.09,32.09,0,0,1,32,32v16"
     style="fill:none;stroke:#d40000;stroke-linecap:round;stroke-linejoin:round;stroke-width:32px"
     id="path12" />
</svg>
