<?xml version="1.0" encoding="UTF-8" standalone="no"?>
<svg
   xmlns:dc="http://purl.org/dc/elements/1.1/"
   xmlns:cc="http://creativecommons.org/ns#"
   xmlns:rdf="http://www.w3.org/1999/02/22-rdf-syntax-ns#"
   xmlns:svg="http://www.w3.org/2000/svg"
   xmlns="http://www.w3.org/2000/svg"
   xmlns:sodipodi="http://sodipodi.sourceforge.net/DTD/sodipodi-0.dtd"
   xmlns:inkscape="http://www.inkscape.org/namespaces/inkscape"
   width="512"
   height="512"
   viewBox="0 0 512 512"
   version="1.1"
   id="svg6"
   sodipodi:docname="checkmark-circle-filled.svg"
   inkscape:version="0.92.5 (2060ec1f9f, 2020-04-08)">
  <metadata
     id="metadata12">
    <rdf:RDF>
      <cc:Work
         rdf:about="">
        <dc:format>image/svg+xml</dc:format>
        <dc:type
           rdf:resource="http://purl.org/dc/dcmitype/StillImage" />
        <dc:title>ionicons-v5-e</dc:title>
      </cc:Work>
    </rdf:RDF>
  </metadata>
  <defs
     id="defs10" />
  <sodipodi:namedview
     pagecolor="#ffffff"
     bordercolor="#666666"
     borderopacity="1"
     objecttolerance="10"
     gridtolerance="10"
     guidetolerance="10"
     inkscape:pageopacity="0"
     inkscape:pageshadow="2"
     inkscape:window-width="1920"
     inkscape:window-height="1001"
     id="namedview8"
     showgrid="false"
     inkscape:zoom="0.65186406"
     inkscape:cx="107.72405"
     inkscape:cy="123.8847"
     inkscape:window-x="-9"
     inkscape:window-y="-9"
     inkscape:window-maximized="1"
     inkscape:current-layer="svg6" />
  <title
     id="title2">ionicons-v5-e</title>
  <circle
     style="opacity:1;fill:#d40000;fill-opacity:1;stroke-width:10.13333416;stroke-miterlimit:4;stroke-dasharray:none"
     id="path820"
     cx="256"
     cy="256"
     r="237.5" />
  <ellipse
     style="opacity:1;fill:#d40000;fill-opacity:1;stroke-width:1.15314329"
     id="path816"
     cx="261.42371"
     cy="256"
     rx="160.54237"
     ry="141.01695" />
  <path
     d="M256,48C141.31,48,48,141.31,48,256s93.31,208,208,208,208-93.31,208-208S370.69,48,256,48ZM364.25,186.29l-134.4,160a16,16,0,0,1-12,5.71h-.27a16,16,0,0,1-11.89-5.3l-57.6-64a16,16,0,1,1,23.78-21.4l45.29,50.32L339.75,165.71a16,16,0,0,1,24.5,20.58Z"
     id="path4"
     style="fill:#ffffff" />
</svg>
