<?xml version="1.0" encoding="UTF-8" standalone="no"?>
<svg
   xmlns:dc="http://purl.org/dc/elements/1.1/"
   xmlns:cc="http://creativecommons.org/ns#"
   xmlns:rdf="http://www.w3.org/1999/02/22-rdf-syntax-ns#"
   xmlns:svg="http://www.w3.org/2000/svg"
   xmlns="http://www.w3.org/2000/svg"
   xmlns:sodipodi="http://sodipodi.sourceforge.net/DTD/sodipodi-0.dtd"
   xmlns:inkscape="http://www.inkscape.org/namespaces/inkscape"
   width="512"
   height="512"
   viewBox="0 0 512 512"
   version="1.1"
   id="svg14"
   sodipodi:docname="dining.svg"
   inkscape:version="0.92.5 (2060ec1f9f, 2020-04-08)">
  <metadata
     id="metadata20">
    <rdf:RDF>
      <cc:Work
         rdf:about="">
        <dc:format>image/svg+xml</dc:format>
        <dc:type
           rdf:resource="http://purl.org/dc/dcmitype/StillImage" />
      </cc:Work>
    </rdf:RDF>
  </metadata>
  <defs
     id="defs18" />
  <sodipodi:namedview
     pagecolor="#ffffff"
     bordercolor="#666666"
     borderopacity="1"
     objecttolerance="10"
     gridtolerance="10"
     guidetolerance="10"
     inkscape:pageopacity="0"
     inkscape:pageshadow="2"
     inkscape:window-width="1920"
     inkscape:window-height="1001"
     id="namedview16"
     showgrid="false"
     inkscape:zoom="0.921875"
     inkscape:cx="135.74204"
     inkscape:cy="400.97231"
     inkscape:window-x="-9"
     inkscape:window-y="-9"
     inkscape:window-maximized="1"
     inkscape:current-layer="svg14" />
  <title
     id="title2">ionicons-v5-p</title>
  <path
     d="M57.49,47.74,425.92,416.17a37.28,37.28,0,0,1,0,52.72h0a37.29,37.29,0,0,1-52.72,0l-90-91.55A32,32,0,0,1,274,354.91v-5.53a32,32,0,0,0-9.52-22.78l-11.62-10.73a32,32,0,0,0-29.8-7.44h0A48.53,48.53,0,0,1,176.5,295.8L91.07,210.36C40.39,159.68,21.74,83.15,57.49,47.74Z"
     style="fill:none;stroke:#d40000;stroke-linejoin:round;stroke-width:32px"
     id="path4" />
  <path
     d="M400,32l-77.25,77.25A64,64,0,0,0,304,154.51v14.86a16,16,0,0,1-4.69,11.32L288,192"
     style="fill:none;stroke:#d40000;stroke-linecap:round;stroke-linejoin:round;stroke-width:32px"
     id="path6" />
  <path
     d="M320,224l11.31-11.31A16,16,0,0,1,342.63,208h14.86a64,64,0,0,0,45.26-18.75L480,112"
     style="fill:none;stroke:#d40000;stroke-linecap:round;stroke-linejoin:round;stroke-width:32px"
     id="path8" />
  <line
     x1="440"
     y1="72"
     x2="360"
     y2="152"
     style="fill:none;stroke:#d40000;stroke-linecap:round;stroke-linejoin:round;stroke-width:32px"
     id="line10" />
  <path
     d="M200,368,100.28,468.28a40,40,0,0,1-56.56,0h0a40,40,0,0,1,0-56.56L128,328"
     style="fill:none;stroke:#d40000;stroke-linecap:round;stroke-linejoin:round;stroke-width:32px"
     id="path12" />
</svg>
