<?xml version="1.0" encoding="UTF-8" standalone="no"?>
<svg
   xmlns:dc="http://purl.org/dc/elements/1.1/"
   xmlns:cc="http://creativecommons.org/ns#"
   xmlns:rdf="http://www.w3.org/1999/02/22-rdf-syntax-ns#"
   xmlns:svg="http://www.w3.org/2000/svg"
   xmlns="http://www.w3.org/2000/svg"
   xmlns:sodipodi="http://sodipodi.sourceforge.net/DTD/sodipodi-0.dtd"
   xmlns:inkscape="http://www.inkscape.org/namespaces/inkscape"
   width="512"
   height="512"
   viewBox="0 0 512 512"
   version="1.1"
   id="svg14"
   sodipodi:docname="people-filled.svg"
   inkscape:version="0.92.5 (2060ec1f9f, 2020-04-08)">
  <metadata
     id="metadata20">
    <rdf:RDF>
      <cc:Work
         rdf:about="">
        <dc:format>image/svg+xml</dc:format>
        <dc:type
           rdf:resource="http://purl.org/dc/dcmitype/StillImage" />
      </cc:Work>
    </rdf:RDF>
  </metadata>
  <defs
     id="defs18" />
  <sodipodi:namedview
     pagecolor="#ffffff"
     bordercolor="#666666"
     borderopacity="1"
     objecttolerance="10"
     gridtolerance="10"
     guidetolerance="10"
     inkscape:pageopacity="0"
     inkscape:pageshadow="2"
     inkscape:window-width="1920"
     inkscape:window-height="1001"
     id="namedview16"
     showgrid="false"
     inkscape:zoom="1.3037281"
     inkscape:cx="213.9123"
     inkscape:cy="330.18859"
     inkscape:window-x="-9"
     inkscape:window-y="-9"
     inkscape:window-maximized="1"
     inkscape:current-layer="svg14" />
  <title
     id="title2">ionicons-v5-j</title>
  <circle
     style="opacity:1;fill:#d40000;fill-opacity:1;stroke:#ffffff;stroke-width:2.95638657"
     id="path829"
     cx="256"
     cy="256"
     r="204.5218" />
  <path
     d="M256,464C141.31,464,48,370.69,48,256S141.31,48,256,48s208,93.31,208,208S370.69,464,256,464Zm0-384C159,80,80,159,80,256S159,432,256,432s176-78.95,176-176S353.05,80,256,80Z"
     id="path4"
     style="fill:#ffffff" />
  <path
     d="M323.67,292c-17.4,0-34.21-7.72-47.34-21.73a83.76,83.76,0,0,1-22-51.32c-1.47-20.7,4.88-39.75,17.88-53.62S303.38,144,323.67,144c20.14,0,38.37,7.62,51.33,21.46s19.47,33,18,53.51h0a84,84,0,0,1-22,51.3C357.86,284.28,341.06,292,323.67,292Zm55.81-74h0Z"
     id="path6"
     style="fill:#ffffff" />
  <path
     d="M163.82,295.36c-29.76,0-55.93-27.51-58.33-61.33-1.23-17.32,4.15-33.33,15.17-45.08s26.22-18,43.15-18,32.12,6.44,43.07,18.14,16.5,27.82,15.25,45C219.69,267.86,193.53,295.36,163.82,295.36Z"
     id="path8"
     style="fill:#ffffff" />
  <path
     d="M420.37,355.28c-1.59-4.7-5.46-9.71-13.22-14.46-23.46-14.33-52.32-21.91-83.48-21.91-30.57,0-60.23,7.9-83.53,22.25-26.25,16.17-43.89,39.75-51,68.18-1.68,6.69-4.13,19.14-1.51,26.11a192.18,192.18,0,0,0,232.75-80.17Z"
     id="path10"
     style="fill:#ffffff" />
  <path
     d="M163.63,401.37c7.07-28.21,22.12-51.73,45.47-70.75a8,8,0,0,0-2.59-13.77c-12-3.83-25.7-5.88-42.69-5.88-23.82,0-49.11,6.45-68.14,18.17-5.4,3.33-10.7,4.61-14.78,5.75a192.84,192.84,0,0,0,77.78,86.64l1.79-.14A102.82,102.82,0,0,1,163.63,401.37Z"
     id="path12"
     style="fill:#ffffff" />
  <ellipse
     style="opacity:1;fill:#ffffff;fill-opacity:1;stroke:#ffffff"
     id="path827"
     cx="-195.59293"
     cy="105.09001"
     rx="62.896549"
     ry="70.183342" />
</svg>
