<?xml version="1.0" encoding="UTF-8" standalone="no"?>
<svg
   xmlns:dc="http://purl.org/dc/elements/1.1/"
   xmlns:cc="http://creativecommons.org/ns#"
   xmlns:rdf="http://www.w3.org/1999/02/22-rdf-syntax-ns#"
   xmlns:svg="http://www.w3.org/2000/svg"
   xmlns="http://www.w3.org/2000/svg"
   xmlns:sodipodi="http://sodipodi.sourceforge.net/DTD/sodipodi-0.dtd"
   xmlns:inkscape="http://www.inkscape.org/namespaces/inkscape"
   width="512"
   height="512"
   viewBox="0 0 512 512"
   version="1.1"
   id="svg8"
   sodipodi:docname="work.svg"
   inkscape:version="0.92.5 (2060ec1f9f, 2020-04-08)">
  <metadata
     id="metadata14">
    <rdf:RDF>
      <cc:Work
         rdf:about="">
        <dc:format>image/svg+xml</dc:format>
        <dc:type
           rdf:resource="http://purl.org/dc/dcmitype/StillImage" />
      </cc:Work>
    </rdf:RDF>
  </metadata>
  <defs
     id="defs12" />
  <sodipodi:namedview
     pagecolor="#ffffff"
     bordercolor="#666666"
     borderopacity="1"
     objecttolerance="10"
     gridtolerance="10"
     guidetolerance="10"
     inkscape:pageopacity="0"
     inkscape:pageshadow="2"
     inkscape:window-width="1920"
     inkscape:window-height="1001"
     id="namedview10"
     showgrid="false"
     inkscape:zoom="1.3037281"
     inkscape:cx="-24.990437"
     inkscape:cy="277.00818"
     inkscape:window-x="-9"
     inkscape:window-y="-9"
     inkscape:window-maximized="1"
     inkscape:current-layer="svg8" />
  <title
     id="title2">ionicons-v5-n</title>
  <path
     d="M64,192V120a40,40,0,0,1,40-40h75.89a40,40,0,0,1,22.19,6.72l27.84,18.56A40,40,0,0,0,252.11,112H408a40,40,0,0,1,40,40v40"
     style="fill:none;stroke:#d40000;stroke-linecap:round;stroke-linejoin:round;stroke-width:32px"
     id="path4" />
  <path
     d="M479.9,226.55,463.68,392a40,40,0,0,1-39.93,40H88.25a40,40,0,0,1-39.93-40L32.1,226.55A32,32,0,0,1,64,192h384.1A32,32,0,0,1,479.9,226.55Z"
     style="fill:none;stroke:#d40000;stroke-linecap:round;stroke-linejoin:round;stroke-width:32px"
     id="path6" />
</svg>
